<?xml version="1.0" encoding="utf-8"?>
<!-- Generator: Adobe Illustrator 19.1.0, SVG Export Plug-In . SVG Version: 6.00 Build 0)  -->
<svg version="1.1" id="Layer_1" xmlns="http://www.w3.org/2000/svg" xmlns:xlink="http://www.w3.org/1999/xlink" x="0px" y="0px"
	 viewBox="0 0 127.3 148.7" style="enable-background:new 0 0 127.3 148.7;" xml:space="preserve">
<style type="text/css">
	.st0{fill:#FFFFFF;}
	.st1{fill:#B2B5B6;}
	.st2{fill:#010101;}
	.st3{fill:#E93A30;}
</style>
<path class="st0" d="M125.3,2H2v115.7h0v2.9c0,0,1.2,9.5,9.4,9.5c8.2,0,26.6,1.1,31.6,2.9c8.4,3,19,9.3,21,13.7
	c1.9-4.4,11.8-10.5,20.3-13.6c5-1.8,23.4-2.9,31.6-2.9c8.2,0,9.4-9.5,9.4-9.5v-3h0V2z"/>
<path class="st1" d="M63.6,33.8C63.6,33.8,63.6,33.8,63.6,33.8c-0.2,0-0.4,0.4-0.4,0.6v0.9c0,0,0.1,0.4,0.4,0.4c0,0,0,0,0,0
	c0.3,0,0.4-0.2,0.4-0.5c0-0.3,0-1.1,0-1.1S63.9,33.8,63.6,33.8 M66.1,33.8C66.1,33.8,66,33.8,66.1,33.8c-0.3,0.1-0.4,0.5-0.4,0.6
	l0.1,0.9c0,0,0.1,0.3,0.4,0.3c0,0,0,0,0.1,0c0.3-0.1,0.4-0.3,0.4-0.5c0-0.3-0.1-1.1-0.1-1.1S66.3,33.8,66.1,33.8 M61.1,33.8
	C61.1,33.8,61.1,33.8,61.1,33.8c-0.2,0-0.4,0.4-0.4,0.6v0.9c0,0,0.1,0.4,0.4,0.4c0,0,0,0,0,0c0.3,0,0.4-0.2,0.4-0.5
	c0-0.3,0-1.1,0-1.1S61.4,33.8,61.1,33.8 M58.8,34.1c-0.2,0-0.4,0.4-0.5,0.5l-0.1,0.9c0,0,0.1,0.4,0.3,0.4h0c0.3,0,0.5-0.2,0.5-0.4
	c0.1-0.3,0.1-1.1,0.1-1.1S59.1,34.1,58.8,34.1L58.8,34.1 M68.5,34.1C68.4,34.1,68.4,34.1,68.5,34.1c-0.2,0.1-0.3,0.5-0.3,0.6
	l0.2,0.9c0,0,0.1,0.3,0.3,0.3c0,0,0,0,0.1,0c0.2-0.1,0.3-0.3,0.3-0.5c-0.1-0.3-0.2-1-0.2-1S68.7,34.1,68.5,34.1 M70.8,34.6
	C70.8,34.6,70.8,34.6,70.8,34.6c-0.2,0.1-0.3,0.5-0.2,0.6l0.2,0.9c0,0,0.1,0.3,0.3,0.3c0,0,0,0,0.1,0c0.2-0.1,0.3-0.3,0.2-0.5
	c-0.1-0.3-0.2-1-0.2-1S71,34.6,70.8,34.6 M56.7,34.7C56.6,34.7,56.6,34.7,56.7,34.7c-0.2,0-0.4,0.3-0.4,0.5l-0.2,0.9
	c0,0,0,0.4,0.2,0.4c0,0,0,0,0,0c0.2,0,0.4-0.2,0.4-0.5c0.1-0.3,0.1-1,0.1-1S56.8,34.7,56.7,34.7 M72.6,35.2
	C72.5,35.2,72.5,35.2,72.6,35.2c-0.2,0.1-0.2,0.5-0.2,0.6l0.2,0.9c0,0,0.1,0.3,0.3,0.3c0,0,0,0,0,0c0.2-0.1,0.2-0.3,0.2-0.5
	c-0.1-0.3-0.2-1-0.2-1S72.7,35.2,72.6,35.2 M54.7,35.4C54.7,35.4,54.6,35.4,54.7,35.4c-0.2,0-0.3,0.3-0.4,0.5l-0.2,0.9
	c0,0,0,0.4,0.2,0.4c0,0,0,0,0,0c0.2,0,0.3-0.2,0.4-0.5c0.1-0.3,0.1-1,0.1-1S54.8,35.4,54.7,35.4 M74.1,36C74.1,36,74.1,36,74.1,36
	c-0.1,0.1-0.1,0.5,0,0.6l0.4,0.8c0,0,0.2,0.3,0.3,0.3c0,0,0,0,0,0c0.1-0.1,0.1-0.3,0-0.5c-0.1-0.3-0.4-0.9-0.4-0.9S74.3,36,74.1,36
	 M53.1,36C53.1,36,53,36,53.1,36c-0.2,0-0.3,0.3-0.4,0.5l-0.2,0.9c0,0,0,0.4,0.2,0.4c0,0,0,0,0,0c0.2,0,0.3-0.2,0.4-0.5
	c0.1-0.3,0.1-1,0.1-1S53.2,36,53.1,36 M75.5,37c-0.1,0.1,0,0.4,0.1,0.6l0.4,0.8l0.3,0.3c0.1-0.1,0-0.3,0-0.5c-0.1-0.3-0.4-1-0.4-1
	L75.5,37z M51.4,37C51.4,37,51.4,37,51.4,37c-0.1,0-0.2,0.3-0.2,0.5l-0.2,0.9c0,0,0,0.4,0.1,0.4c0,0,0,0,0,0c0.1,0,0.2-0.3,0.2-0.5
	c0-0.3,0.1-1,0.1-1S51.5,37,51.4,37 M63.1,39.1c-0.2,0-0.5,0.5-0.7,0.6c-0.2,0.1-0.1,0.6-0.1,0.6l2.8,0c0,0,0-0.2,0-0.3
	c0-0.1-0.2-0.4-0.3-0.6C64.7,39.3,63.3,39.1,63.1,39.1 M67.2,39.3c-0.1,0-0.2,0-0.3,0c-0.4,0-0.4,0.3-0.6,0.5
	c-0.3,0.2-0.5,0.6-0.5,0.6l2.2,0.2c0,0,0.2-0.1,0.2-0.3c0-0.2-0.3-0.5-0.3-0.7C67.8,39.4,67.6,39.3,67.2,39.3 M59.8,39.3L59.3,40
	l-0.2,0.5c0,0,0.8,0,1.5,0c0.5,0,1,0,1-0.1c0-0.1-0.1-0.6-0.3-0.7c-0.2-0.1-0.6-0.1-0.7-0.2C60.4,39.3,59.8,39.3,59.8,39.3
	 M56.9,39.6L56.5,40l-0.1,0.7l-0.1,0.2l2-0.2l0-0.4l-0.6,0l-0.4-0.4L56.9,39.6z M70.2,39.7C70.2,39.7,70.1,39.7,70.2,39.7
	c-0.3,0.1-0.4,0.4-0.6,0.4c-0.2,0-0.9,0.3-0.6,0.4c0,0,1.9,0.4,2.1,0.4c0.2,0,0.2-0.2,0-0.4c-0.2-0.2-0.4-0.4-0.4-0.5
	C70.8,40,70.4,39.7,70.2,39.7 M73.3,39.9c-0.1,0-0.4,0.4-0.5,0.5c-0.1,0.1-0.4,0.5-0.6,0.5c0,0,0,0-0.1,0c0,0-0.5,0.3,0.1,0.4
	c0.6,0.1,1.4,0.3,1.5,0.3c0.1,0,0.1-0.2-0.1-0.4c-0.2-0.2-0.3-0.5-0.3-0.6C73.4,40.4,73.4,40,73.3,39.9
	C73.3,39.9,73.3,39.9,73.3,39.9 M54,40.3L53.9,41l-0.5,0.3v0.3l1.9-0.5l-0.6-0.4l-0.3-0.5L54,40.3z M75.4,40.9
	C75.4,40.9,75.3,41,75.4,40.9c-0.1,0.3-0.5,0.8-0.5,0.8s-0.1,0-0.2,0c-0.2,0-0.5,0-0.2,0.1l1.8,0.6c0,0-0.3-0.2-0.4-0.5
	c-0.1-0.4-0.3-0.7-0.3-0.7S75.5,40.9,75.4,40.9 M52,41C52,41,52,41,52,41c-0.1,0-0.3,0.4-0.3,0.6c0,0.2-0.9,0.6-0.6,0.8l1.7-0.5
	c0,0-0.3,0-0.4-0.3C52.3,41.2,52.1,41,52,41 M77.4,41.8c-0.1,0-0.4,0.6-0.4,0.6c-0.3,0-0.1,0.3-0.1,0.3l1.3,0.4c0,0-0.4-0.4-0.5-0.5
	C77.6,42.4,77.6,42.1,77.4,41.8C77.4,41.8,77.4,41.8,77.4,41.8 M50.1,41.9c-0.1,0-0.1,0.3-0.2,0.5c-0.1,0.2-0.4,0.5-0.6,0.6
	c-0.1,0,0,0,0,0c0.1,0,0.6-0.1,1.1-0.4C50.4,42.5,50.3,42.1,50.1,41.9C50.1,41.9,50.1,41.9,50.1,41.9 M63.6,44
	c-0.6,0-0.7,0.7-0.7,0.7l0.2,3.3h1.2v-3.4C64.2,44.5,64.2,44,63.6,44 M60.5,44c-0.5,0-0.6,0.6-0.6,0.6v3.5H61v-3.6
	C61,44.5,61,44,60.5,44 M66.8,44.1c-0.5,0-0.7,0.7-0.7,0.7l0.1,3.3h1.2v-3.4C67.4,44.6,67.3,44.1,66.8,44.1 M70,44.3
	c-0.5,0-0.7,0.7-0.7,0.7l0.1,3.3h1.2v-3.4C70.6,44.9,70.5,44.3,70,44.3 M57.6,44.4c-0.5,0-0.5,0.6-0.5,0.6v3.5H58v-3.6
	C58,44.9,58,44.4,57.6,44.4 M72.8,44.9c-0.4,0-0.5,0.6-0.5,0.6l0.1,3.3l0.9,0.2v-3.4C73.3,45.6,73.3,45,72.8,44.9
	C72.8,44.9,72.8,44.9,72.8,44.9 M54.6,45C54.5,45,54.5,45,54.6,45c-0.4,0-0.5,0.6-0.5,0.6v3.3l0.8,0v-3.4C54.9,45.5,55,45,54.6,45
	 M75.3,45.4c-0.3,0-0.4,0.6-0.4,0.6l0.1,3.4l0.8,0.2v-3.5C75.8,46.2,75.8,45.5,75.3,45.4C75.4,45.4,75.4,45.4,75.3,45.4 M52.1,45.7
	C52.1,45.7,52,45.7,52.1,45.7c-0.4,0-0.4,0.6-0.4,0.6v3.3l0.8,0v-3.4C52.4,46.2,52.4,45.7,52.1,45.7 M77.4,46.1
	c-0.3,0-0.3,0.6-0.3,0.6l0,3.4l0.7,0.2v-3.5C77.8,46.8,77.8,46.2,77.4,46.1C77.5,46.1,77.5,46.1,77.4,46.1 M49.9,46.5
	C49.9,46.5,49.9,46.5,49.9,46.5c-0.3,0-0.3,0.6-0.3,0.6v3.1l0.5,0V47C50.1,47,50.2,46.5,49.9,46.5 M79.2,47.1
	c-0.2,0-0.2,0.5-0.2,0.5l0,2.9l0.5,0.2v-2.9C79.5,47.7,79.5,47.2,79.2,47.1C79.3,47.1,79.2,47.1,79.2,47.1 M48.2,47.7L48.2,47.7
	c-0.2,0-0.2,0.5-0.2,0.5v2.5l0.3,0V48C48.3,48,48.3,47.7,48.2,47.7 M64.1,55.7c-0.4,0-0.9,0.7-0.9,1c0,0.3,0.1,5.2,0.1,5.2h1.3v-5.3
	C64.6,56.6,64.5,55.7,64.1,55.7 M60.5,55.7c-0.4,0-0.9,0.7-0.9,1c0,0.3,0.1,5.2,0.1,5.2h1.3v-5.3C61.1,56.6,60.9,55.7,60.5,55.7
	 M67.5,55.7c-0.4,0-0.9,0.7-0.9,1c0,0.3,0.1,5.2,0.1,5.2H68v-5.3C68,56.6,67.9,55.7,67.5,55.7 M57.2,55.9c-0.4,0-0.8,0.7-0.8,1v5.2
	h0.9v-5.3C57.3,56.8,57.6,55.9,57.2,55.9 M70.7,56c-0.4,0-0.3,0.6-0.3,1c0,0.3,0.1,5.2,0.1,5.2h1v-5.3C71.5,56.8,71.1,56,70.7,56
	 M74,56.4c-0.3,0-0.2,0.6-0.2,0.9c0,0.3,0.1,5.1,0.1,5.1h0.7v-5.2C74.6,57.2,74.3,56.4,74,56.4 M54.4,56.6c-0.3,0-0.6,0.7-0.6,1v5
	h0.7v-5.1C54.5,57.5,54.7,56.6,54.4,56.6 M51.8,56.9c-0.3,0-0.7,0.7-0.7,1v5h0.8v-5.1C51.9,57.8,52.2,56.9,51.8,56.9 M76.2,57
	c-0.3,0-0.2,0.6-0.2,0.9c0,0.3,0.1,5.1,0.1,5.1h0.7v-5.2C76.7,57.8,76.4,57,76.2,57 M49.3,57.8c-0.3,0-0.6,0.6-0.6,0.9v4.2h0.7v-4.4
	C49.4,58.6,49.6,57.8,49.3,57.8 M78.6,58c-0.3,0-0.2,0.5-0.2,0.8c0,0.3,0.1,4.3,0.1,4.3h0.7v-4.4C79.1,58.6,78.8,58,78.6,58
	 M47.3,58.7c-0.2,0-0.4,0.5-0.4,0.7V63h0.5v-3.7C47.4,59.3,47.6,58.7,47.3,58.7 M80.5,58.8c-0.2,0-0.1,0.4-0.1,0.7
	c0,0.2,0,3.6,0,3.6h0.4v-3.7C80.8,59.3,80.7,58.8,80.5,58.8"/>
<path class="st2" d="M91.9,113.8v-3.6h3.7v2.1l0.8,0.8h1.4l0.8-0.8v-3.9l-0.6-0.6h-4l-2.1-2.1v-7.1l2.4-2.4h5.5l2.4,2.4v3.6h-3.7
	v-2.1l-0.8-0.8h-1.3l-0.8,0.8v3.7l0.6,0.6h4l2.1,2.1v7.3l-2.4,2.4h-5.6L91.9,113.8z M80.2,113.4h1.9V99h-1.3v3.7h-2.9v-6.5H90v6.5
	h-2.9V99h-1.3v14.4h1.9v2.8h-7.4V113.4z M70.9,105l1-1v-4.2L71,99h-2.1v6H70.9z M63.9,113.4h1.3V99h-1.3v-2.8h9.3l2.4,2.4v5.8
	l-1.7,1.8l1.7,1.7v5.4l0.1,0.1h0.8v2.8h-3l-1.6-1.6v-5.9l-1-1h-2v5.7H70v2.8h-6.1V113.4z M57.2,113.1l0.8-0.8v-12.2l-0.8-0.8h-1.5
	l-0.8,0.8v12.2l0.8,0.8H57.2z M51.1,113.8V98.6l2.4-2.4h5.7l2.4,2.4v15.1l-2.4,2.4h-5.7L51.1,113.8z M44.3,106l0.8-0.8v-5.3
	l-0.8-0.8h-2v7H44.3z M37.3,113.4h1.3V99h-1.3v-2.8h9.2l2.4,2.4v7.8l-2.4,2.4h-4.1v4.5h1.9v2.8h-6.9V113.4z M24.9,113.8v-3.6h3.7
	v2.1l0.8,0.8h1.4l0.8-0.8v-3.9l-0.6-0.6h-4l-2.1-2.1v-7.1l2.4-2.4H33l2.4,2.4v3.6h-3.7v-2.1l-0.8-0.8h-1.3l-0.8,0.8v3.7l0.6,0.6h4
	l2.1,2.1v7.3l-2.4,2.4h-5.6L24.9,113.8z M4.1,120.5c0.1,1,1.4,7.6,7.4,7.6c8.1,0,26.8,1.1,32.3,3c6.3,2.3,15.9,7.2,20.3,12
	c3.9-4.5,12.4-9.3,19.6-11.9c5.4-2,24.2-3,32.3-3c6,0,7.2-6.6,7.4-7.6v-2.9c0-0.1,0-0.3,0-0.4V4H4v113.3c0,0.1,0.1,0.3,0.1,0.4
	V120.5z M64,148.7c-0.8,0-1.5-0.5-1.8-1.2c-1.5-3.4-11-9.4-19.8-12.6c-4.4-1.6-21.8-2.8-30.9-2.8c-7.9,0-10.9-7.3-11.4-11.2
	c0-0.1,0-0.2,0-0.2v-2.5c0-0.1,0-0.3,0-0.4V2c0-1.1,0.9-2,2-2h123.3c1.1,0,2,0.9,2,2v115.7c0,0.1,0,0.3,0,0.4v2.6c0,0.1,0,0.2,0,0.2
	c-0.5,3.9-3.5,11.2-11.4,11.2c-9.1,0-26.5,1.2-30.9,2.8c-8.5,3.1-17.6,9-19.1,12.5C65.5,148.2,64.8,148.7,64,148.7L64,148.7z"/>
<path class="st3" d="M64.3,12.5c0,0.1,0,0.2,0,0.2s0.3,0.6,0.5,1c0.2,0.4,0.2,1.5,0,1.9c-0.2,0.4-0.4,0.7-0.4,1.1
	c0,0.4,0.6,0.9,0.5,1.3c-0.2,0.4-0.2,1.2,0,1.4c0.2,0.2,1.3,0.7,1.3,0.7l0.1,0.4c0,0,1.3,0.7,1.2,1.3c-0.2,0.6-0.4,1.3-0.5,1.5
	c-0.1,0.2,0,3.5,0,3.5s0.4,0.4,0.5,0.8c0.1,0.4,0.2,0.6,0.2,0.6s1.6,0.8,1.6,1.3v0.9c0,0,3.4,1.2,6.1,4.5l0,0h36.6V12.5H64.3z
	 M78.6,41.7c0,0,1,0.6,1.1,0.9c0.1,0.3,0.8,1,0.8,1.4c0,0.4,1.1,1.1,1.3,1.8c0.2,0.7,0.8,1.9,0.2,3.1c-0.6,1.2-0.6,1.6-0.6,1.6v1.2
	c0,0,1.3,1,1.9,1.3c0.6,0.3,1.3,1.7,1.3,1.7s1.3,1.4,1.3,2c0.1,0.6-0.5,2.1-0.6,2.5c-0.1,0.3-0.1,1.9-0.1,2.8h26.4V40.2H78.2
	C78.5,41.1,78.6,41.7,78.6,41.7 M58,30.4c0,0,0.2-0.1,0.3-0.7c0.1-0.6,0.6-0.6,0.9-1c0.4-0.4,1.3-1.6,1.3-1.9v-3.1
	c0,0-0.6-0.8-0.6-1.6c0-0.8,0.7-1.5,1-1.7c0.3-0.2,0.4-0.6,0.6-0.8c0.2-0.2,0.7-0.2,0.8-0.6c0.1-0.4,0.2-0.9,0.2-0.9
	s-0.7-0.7-0.3-0.9c0.4-0.2,0.6-0.6,0.6-0.9c0-0.2-0.2-1.7-0.2-2.1c0-0.4,0.2-1.3,0.5-1.6l0.1-0.1H16.3v22.4h35.9
	C53.5,33.2,55.3,31.6,58,30.4 M41.9,59.5c0,0-1.8-2.3,0.3-4.6c2.1-2.4,3.6-3.2,3.6-3.2v-1.9c0,0-1.2-1.3-0.8-2.8
	c0.4-1.5,2-2.8,2-2.8s1.7-2.3,2.1-2.6c0.1-0.1,0.2-0.6,0.4-1.3H16.3v21.9h25.6V59.5z M61.9,126.4l-4.1,0.6l3,2.9l-0.7,4.1l3.7-1.9
	l3.7,1.9l-0.7-4.1l3-2.9l-4.1-0.6l-1.8-3.7L61.9,126.4z M101.7,87.7h1.9V72.5h-1.3v3.9h-2.9v-6.8h12.1v6.8h-2.9v-3.9h-1.3v15.2h1.9
	v2.9h-7.4V87.7z M87.2,88V72.1l2.4-2.6H95l2.4,2.6v4.4h-3.7v-2.8l-0.8-0.9h-1.2l-0.8,0.9v12.9l0.8,0.9h1.2l0.8-0.9v-3h3.7V88
	L95,90.6h-5.4L87.2,88z M78.5,87.7h1.4V72.5h-1.4v-2.9h6.6v2.9h-1.5v15.2h1.5v2.9h-6.6V87.7z M71.5,78.8l1-1v-4.4l-0.8-0.9h-2.1v6.3
	H71.5z M64.5,87.7h1.3V72.5h-1.3v-2.9h9.3l2.4,2.6v6.1l-1.7,1.9l1.7,1.8v5.6l0.1,0.1h0.8v2.9h-3L72.5,89v-6.2l-1-1h-2v5.9h1.1v2.9
	h-6.1V87.7z M53.3,87.7h1.9V72.5h-1.3v3.9H51v-6.8h12.1v6.8h-2.9v-3.9h-1.3v15.2h1.9v2.9h-7.4V87.7z M38.5,88v-3.7h3.7v2.2l0.8,0.9
	h1.4l0.8-0.9v-4.1l-0.6-0.7h-4l-2.1-2.2v-7.5l2.4-2.6h5.5l2.4,2.6v3.7h-3.7v-2.2l-0.8-0.9h-1.3l-0.8,0.9v3.9l0.6,0.7h4l2.1,2.2V88
	l-2.4,2.6H41L38.5,88z M30.1,87.7h1.5V72.5h-1.5v-2.9h6.6v2.9h-1.5v15.2h1.5v2.9h-6.6V87.7z M23.4,87.4l0.8-0.9V73.7l-0.8-0.9h-2.1
	v14.6H23.4z M16.3,87.7h1.3V72.5h-1.3v-2.9h9.3l2.4,2.6V88l-2.4,2.6h-9.3V87.7z"/>
</svg>
